HIERARCHY
ROOT Hips
{
	OFFSET -3.958830 18.904000 13.208200
	CHANNELS 6 Xposition Yposition Zposition Zrotation Yrotation Xrotation 
	JOINT LHipJoint
	{
		OFFSET 0.000000 0.000000 0.000000
		CHANNELS 3 Zrotation Yrotation Xrotation
		JOINT LeftUpLeg
		{
			OFFSET 1.800000 -1.400000 0.085000
			CHANNELS 3 Zrotation Yrotation Xrotation
			JOINT LeftLeg
			{
				OFFSET 2.215000 -6.000000 0.000000
				CHANNELS 3 Zrotation Yrotation Xrotation
				JOINT LeftFoot
				{
					OFFSET 2.500000 -6.900000 0.000000
					CHANNELS 3 Zrotation Yrotation Xrotation
					JOINT LeftToeBase
					{
						OFFSET 0.200000 -0.500000 1.950000
						CHANNELS 3 Zrotation Yrotation Xrotation
						End Site
						{
							OFFSET 0.000000 0.000000 0.000000
						}
					}
				}
			}
		}
	}
	JOINT RHipJoint
	{
		OFFSET 0.000000 0.000000 0.000000
		CHANNELS 3 Zrotation Yrotation Xrotation
		JOINT RightUpLeg
		{
			OFFSET -1.800000 -1.400000 0.085000
			CHANNELS 3 Zrotation Yrotation Xrotation
			JOINT RightLeg
			{
				OFFSET -2.215000 -6.000000 0.000000
				CHANNELS 3 Zrotation Yrotation Xrotation
				JOINT RightFoot
				{
					OFFSET -2.500000 -6.900000 0.000000
					CHANNELS 3 Zrotation Yrotation Xrotation
					JOINT RightToeBase
					{
						OFFSET -0.200000 -0.500000 1.950000
						CHANNELS 3 Zrotation Yrotation Xrotation
						End Site
						{
							OFFSET 0.000000 0.000000 0.000000
						}
					}
				}
			}
		}
	}
	JOINT LowerBack
	{
		OFFSET 0.000000 0.000000 0.000000
		CHANNELS 3 Zrotation Yrotation Xrotation
		JOINT Spine
		{
			OFFSET -0.087000 1.940000 -0.288900
			CHANNELS 3 Zrotation Yrotation Xrotation
			JOINT Spine1
			{
				OFFSET 0.000000 1.950000 0.060000
				CHANNELS 3 Zrotation Yrotation Xrotation
				JOINT Neck
				{
					OFFSET 0.000000 0.000000 0.000000
					CHANNELS 3 Zrotation Yrotation Xrotation
					JOINT Neck1
					{
						OFFSET 0.000000 1.600000 0.340000
						CHANNELS 3 Zrotation Yrotation Xrotation
						JOINT Head
						{
							OFFSET 0.000000 1.667000 -0.240000
							CHANNELS 3 Zrotation Yrotation Xrotation
							End Site
							{
								OFFSET 0.000000 0.000000 0.000000
							}
						}
					}
				}
				JOINT LeftShoulder
				{
					OFFSET 0.000000 0.000000 0.000000
					CHANNELS 3 Zrotation Yrotation Xrotation
					JOINT LeftArm
					{
						OFFSET 2.700000 1.550000 -0.730000
						CHANNELS 3 Zrotation Yrotation Xrotation
						JOINT LeftForeArm
						{
							OFFSET 5.450000 0.000000 0.000000
							CHANNELS 3 Zrotation Yrotation Xrotation
							JOINT LeftHand
							{
								OFFSET 3.450000 0.000000 0.000000
								CHANNELS 3 Zrotation Yrotation Xrotation
								JOINT LeftHandIndex1
								{
									OFFSET 0.750000 0.000000 0.000000
									CHANNELS 3 Zrotation Yrotation Xrotation
									End Site
									{
										OFFSET 0.000000 0.000000 0.000000
									}
								}
							}
						}
					}
				}
				JOINT RightShoulder
				{
					OFFSET 0.000000 0.000000 0.000000
					CHANNELS 3 Zrotation Yrotation Xrotation
					JOINT RightArm
					{
						OFFSET -2.700000 1.550000 -0.730000
						CHANNELS 3 Zrotation Yrotation Xrotation
						JOINT RightForeArm
						{
							OFFSET -5.450000 0.000000 0.000000
							CHANNELS 3 Zrotation Yrotation Xrotation
							JOINT RightHand
							{
								OFFSET -3.450000 0.000000 0.000000
								CHANNELS 3 Zrotation Yrotation Xrotation
								JOINT RightHandIndex1
								{
									OFFSET -0.750000 0.000000 0.000000
									CHANNELS 3 Zrotation Yrotation Xrotation
									End Site
									{
										OFFSET 0.000000 0.000000 0.000000
									}
								}
							}
						}
					}
				}
			}
		}
	}
}
MOTION
Frames: 6
Frame Time: 0.016667
2.211480 17.438330 -1.840610 13.508271 -48.163667 -8.014580 -15.079275 11.808488 4.929567 -15.122489 -5.782173 -44.005428 -1.680600 2.821763 8.545692 -0.512265 1.535926 4.089002 0.421350 0.070750 0.580150 18.285648 -11.334386 2.880837 -1.715315 2.868111 -5.728446 8.817433 -7.144322 24.789813 -0.605526 -5.010641 2.573955 -0.071370 0.135870 0.537780 -4.122359 0.807242 -8.048647 16.218614 11.343805 37.074734 2.769987 16.658529 9.534713 1.193882 -5.599352 -7.771414 -8.327157 5.182968 39.559301 -17.710880 8.292270 -8.358660 -11.445449 6.339046 -0.615067 -29.692574 6.161493 -8.007830 -4.040188 -32.663938 0.541132 -3.631752 3.473299 0.332690 0.150090 0.208890 0.179740 6.870859 9.280275 6.877271 48.614162 27.332804 6.222188 -143.223580 55.652465 -134.733394 2.292506 -1.951802 0.077890 -0.056880 -0.186660 -0.068050 
2.279640 17.341810 -1.793200 17.196571 -42.517563 -9.645844 -15.179469 11.440074 5.142181 -19.459883 -7.332263 -41.491176 -5.499854 2.257590 -0.132117 -0.533730 1.376119 4.179326 0.406370 0.056690 0.552600 18.284532 -11.147335 2.721721 -2.681179 0.924843 -3.737710 9.530970 -6.791284 17.930585 -0.531270 -4.657281 2.714465 -0.065600 0.147320 0.532030 -3.868920 0.775823 -8.206916 13.163224 12.369839 35.331975 4.040851 16.255334 12.068450 1.130703 -4.310615 -8.916075 -6.305632 2.863505 38.832321 -16.626180 6.598650 -6.852460 -8.967282 3.474817 0.221508 -26.346258 5.755564 -7.793618 -1.352541 -33.595105 -0.030243 -3.660951 3.509047 0.300700 0.169180 0.171260 0.169730 5.258869 11.174441 8.002769 44.234054 26.611799 4.632822 -138.333836 49.509816 -122.146665 2.309640 -1.836672 0.075610 -0.075190 -0.171670 -0.066650 
2.372170 17.210840 -1.735480 18.481193 -38.160588 -8.784454 -15.193963 11.042455 5.431041 -22.965755 -9.145438 -42.630664 -6.602664 2.223782 -0.898594 -0.565014 1.375437 4.190725 0.406910 0.041190 0.532750 18.358343 -11.047458 2.662230 -1.840702 -0.167247 -3.798668 8.249224 -6.101977 13.868625 -0.458567 -4.320366 2.830318 -0.047810 0.177720 0.533930 -3.947957 1.017204 -8.332436 12.805116 12.371521 32.714311 4.180829 15.216768 13.288977 0.703956 -3.909992 -9.275720 -6.178503 1.425465 38.581589 -15.061340 4.754980 -5.061660 -7.529711 1.919167 0.780767 -22.865227 5.336099 -7.151507 1.771801 -36.146578 -0.676982 -3.690831 3.565839 0.278090 0.194000 0.124850 0.171840 5.001788 11.434088 8.080691 40.216041 25.569523 3.795375 -136.365305 47.703407 -116.175510 2.280297 -1.837334 0.061110 -0.084630 -0.158050 -0.067240 
2.468560 17.121150 -1.697590 20.287873 -36.929866 -10.470749 -15.154850 10.835032 5.711073 -25.714020 -10.271330 -44.030347 -2.180444 2.240215 4.620851 -0.548536 1.143467 4.281609 0.422590 0.095440 0.483340 18.419896 -11.108118 2.597337 -2.535533 -0.561857 -3.032822 6.496606 -5.717986 12.723687 -0.448211 -4.241884 2.883173 -0.025220 0.200700 0.500510 -4.159250 1.291064 -8.360438 13.839300 12.049090 34.066934 2.264225 15.085929 13.988735 0.315440 -4.965579 -9.695586 -8.407560 1.744986 38.251116 -12.983170 3.536820 -4.205030 -7.475731 0.418269 1.490908 -19.409382 6.949341 -7.385412 7.324842 -42.017171 -2.487429 -3.633349 3.636063 0.244850 0.180270 0.118730 0.226420 5.569489 13.329029 8.156273 35.358225 25.306680 1.954994 -133.455250 46.896957 -110.106582 2.304280 -1.791750 0.071940 -0.065620 -0.195910 -0.016760 
2.549570 17.049640 -1.638590 20.120249 -37.675747 -11.823985 -14.977567 10.778271 5.681615 -24.997721 -9.599836 -44.771148 1.257678 2.275386 11.556863 -0.540533 1.354672 4.170026 0.450110 0.106010 0.527200 18.532674 -11.506951 2.709895 -2.256415 -0.733269 -2.301074 4.431040 -5.474754 13.156805 -0.482914 -4.231990 2.861699 -0.018740 0.131340 0.483940 -4.729283 2.191639 -8.242271 18.540507 11.199217 36.592808 -2.299237 15.901701 14.428509 0.954436 -5.060414 -10.208434 -8.797902 0.996215 38.434934 -13.173520 2.775430 -5.888630 -9.155247 -1.634701 1.377330 -12.911275 8.472531 -7.046511 13.786809 -46.167315 -4.967523 -3.583908 3.622018 0.304740 0.119710 0.151220 0.205450 5.591170 14.778513 8.988098 33.979749 23.405152 -0.822323 -131.604876 45.935812 -106.775622 2.323145 -1.717216 0.064960 -0.077520 -0.207850 -0.047940 
2.603280 17.010060 -1.588270 20.221406 -37.515983 -13.155933 -14.843989 10.787850 5.632117 -23.989725 -9.161494 -45.160031 3.700982 2.594157 20.522859 -0.400312 2.179873 3.831088 0.467950 0.110650 0.538080 18.607963 -11.780774 2.775727 -3.171640 -0.327145 -1.817358 4.435142 -5.639897 14.247697 -0.531784 -4.341122 2.814288 -0.036580 0.074110 0.484480 -5.118131 2.787001 -8.144214 21.489579 9.524178 39.092909 -6.637552 15.483789 14.089519 1.372950 -5.972033 -10.776512 -10.701895 1.201926 38.906059 -13.202840 2.108560 -7.582030 -10.667545 -3.184108 1.668996 -9.473803 12.116520 -7.578426 25.346249 -50.579331 -10.283217 -3.554211 3.538833 0.357740 0.061230 0.186270 0.194390 6.219884 16.441916 9.480876 33.958539 22.877220 -2.941621 -128.009711 48.079443 -104.352293 2.363398 -1.563312 0.083160 -0.098190 -0.208310 -0.060010 
